<mxfile host="app.diagrams.net" modified="2020-09-22T12:06:34.044Z" agent="5.0 (X11)" etag="QbxI3o1yWusKPUzdyrtF" version="13.7.4" type="github">
  <diagram id="csYmJrA02LEvdYv30kbC" name="Page-1">
    <mxGraphModel dx="1422" dy="1866" grid="1" gridSize="10" guides="1" tooltips="1" connect="1" arrows="1" fold="1" page="1" pageScale="1" pageWidth="850" pageHeight="1100" math="0" shadow="0">
      <root>
        <mxCell id="0" />
        <mxCell id="1" parent="0" />
        <mxCell id="HQlM4vIsbIUSThijL78P-1" value="Central lighting management system" style="shape=cube;whiteSpace=wrap;html=1;boundedLbl=1;backgroundOutline=1;darkOpacity=0.05;darkOpacity2=0.1;" vertex="1" parent="1">
          <mxGeometry x="660" y="475" width="170" height="150" as="geometry" />
        </mxCell>
        <mxCell id="HQlM4vIsbIUSThijL78P-22" style="edgeStyle=orthogonalEdgeStyle;rounded=0;orthogonalLoop=1;jettySize=auto;html=1;entryX=0;entryY=0.5;entryDx=0;entryDy=0;" edge="1" parent="1" source="HQlM4vIsbIUSThijL78P-2" target="HQlM4vIsbIUSThijL78P-6">
          <mxGeometry relative="1" as="geometry" />
        </mxCell>
        <mxCell id="HQlM4vIsbIUSThijL78P-2" value="Infrared sensors" style="triangle;whiteSpace=wrap;html=1;" vertex="1" parent="1">
          <mxGeometry x="300" y="640" width="60" height="80" as="geometry" />
        </mxCell>
        <mxCell id="HQlM4vIsbIUSThijL78P-23" style="edgeStyle=orthogonalEdgeStyle;rounded=0;orthogonalLoop=1;jettySize=auto;html=1;entryX=0;entryY=0.5;entryDx=0;entryDy=0;" edge="1" parent="1" source="HQlM4vIsbIUSThijL78P-3" target="HQlM4vIsbIUSThijL78P-4">
          <mxGeometry relative="1" as="geometry" />
        </mxCell>
        <mxCell id="HQlM4vIsbIUSThijL78P-3" value="Infrared sensors" style="triangle;whiteSpace=wrap;html=1;" vertex="1" parent="1">
          <mxGeometry x="300" y="20" width="60" height="80" as="geometry" />
        </mxCell>
        <mxCell id="HQlM4vIsbIUSThijL78P-4" value="Lights" style="rhombus;whiteSpace=wrap;html=1;" vertex="1" parent="1">
          <mxGeometry x="400" y="140" width="80" height="80" as="geometry" />
        </mxCell>
        <mxCell id="HQlM4vIsbIUSThijL78P-5" value="Lights" style="rhombus;whiteSpace=wrap;html=1;" vertex="1" parent="1">
          <mxGeometry x="400" y="300" width="80" height="80" as="geometry" />
        </mxCell>
        <mxCell id="HQlM4vIsbIUSThijL78P-6" value="&lt;div&gt;Lights&lt;/div&gt;" style="rhombus;whiteSpace=wrap;html=1;" vertex="1" parent="1">
          <mxGeometry x="400" y="460" width="80" height="80" as="geometry" />
        </mxCell>
        <mxCell id="HQlM4vIsbIUSThijL78P-15" value="" style="endArrow=classic;startArrow=classic;html=1;entryX=0.5;entryY=1;entryDx=0;entryDy=0;" edge="1" parent="1" target="HQlM4vIsbIUSThijL78P-5">
          <mxGeometry width="50" height="50" relative="1" as="geometry">
            <mxPoint x="440" y="460" as="sourcePoint" />
            <mxPoint x="490" y="410" as="targetPoint" />
            <Array as="points" />
          </mxGeometry>
        </mxCell>
        <mxCell id="HQlM4vIsbIUSThijL78P-17" value="" style="endArrow=classic;startArrow=classic;html=1;exitX=0.5;exitY=0;exitDx=0;exitDy=0;" edge="1" parent="1" source="HQlM4vIsbIUSThijL78P-5">
          <mxGeometry width="50" height="50" relative="1" as="geometry">
            <mxPoint x="420" y="280" as="sourcePoint" />
            <mxPoint x="440" y="220" as="targetPoint" />
          </mxGeometry>
        </mxCell>
        <mxCell id="HQlM4vIsbIUSThijL78P-18" value="" style="endArrow=classic;startArrow=classic;html=1;exitX=1;exitY=0.5;exitDx=0;exitDy=0;entryX=1;entryY=0.5;entryDx=0;entryDy=0;" edge="1" parent="1" source="HQlM4vIsbIUSThijL78P-6" target="HQlM4vIsbIUSThijL78P-4">
          <mxGeometry width="50" height="50" relative="1" as="geometry">
            <mxPoint x="400" y="420" as="sourcePoint" />
            <mxPoint x="520" y="370" as="targetPoint" />
            <Array as="points">
              <mxPoint x="530" y="340" />
            </Array>
          </mxGeometry>
        </mxCell>
        <mxCell id="HQlM4vIsbIUSThijL78P-24" value="" style="endArrow=none;dashed=1;html=1;dashPattern=1 3;strokeWidth=2;entryX=0.5;entryY=1;entryDx=0;entryDy=0;" edge="1" parent="1" target="HQlM4vIsbIUSThijL78P-6">
          <mxGeometry width="50" height="50" relative="1" as="geometry">
            <mxPoint x="440" y="740" as="sourcePoint" />
            <mxPoint x="450" y="670" as="targetPoint" />
          </mxGeometry>
        </mxCell>
        <mxCell id="HQlM4vIsbIUSThijL78P-26" value="" style="endArrow=none;dashed=1;html=1;exitX=0.5;exitY=0;exitDx=0;exitDy=0;" edge="1" parent="1" source="HQlM4vIsbIUSThijL78P-4">
          <mxGeometry width="50" height="50" relative="1" as="geometry">
            <mxPoint x="410" y="140" as="sourcePoint" />
            <mxPoint x="440" as="targetPoint" />
          </mxGeometry>
        </mxCell>
        <mxCell id="HQlM4vIsbIUSThijL78P-27" value="" style="endArrow=classic;html=1;entryX=0;entryY=0;entryDx=95;entryDy=150;entryPerimeter=0;" edge="1" parent="1" target="HQlM4vIsbIUSThijL78P-1">
          <mxGeometry width="50" height="50" relative="1" as="geometry">
            <mxPoint x="440" y="740" as="sourcePoint" />
            <mxPoint x="450" y="370" as="targetPoint" />
            <Array as="points" />
          </mxGeometry>
        </mxCell>
        <mxCell id="HQlM4vIsbIUSThijL78P-28" value="Road" style="rounded=0;whiteSpace=wrap;html=1;" vertex="1" parent="1">
          <mxGeometry y="-10" width="270" height="850" as="geometry" />
        </mxCell>
        <mxCell id="HQlM4vIsbIUSThijL78P-29" value="Cars" style="shape=step;perimeter=stepPerimeter;whiteSpace=wrap;html=1;fixedSize=1;rotation=90;" vertex="1" parent="1">
          <mxGeometry x="10" y="30" width="120" height="80" as="geometry" />
        </mxCell>
        <mxCell id="HQlM4vIsbIUSThijL78P-30" value="Cars" style="shape=step;perimeter=stepPerimeter;whiteSpace=wrap;html=1;fixedSize=1;rotation=90;" vertex="1" parent="1">
          <mxGeometry x="140" y="240" width="120" height="80" as="geometry" />
        </mxCell>
      </root>
    </mxGraphModel>
  </diagram>
</mxfile>
